<svg width="60" height="60" viewBox="0 0 512.005 512.005"><path d="M394.667 384.002c-29.397 0-53.333 23.936-53.333 53.333s23.936 53.333 53.333 53.333S448 466.733 448 437.336s-23.936-53.334-53.333-53.334zm0 85.334c-17.643 0-32-14.357-32-32s14.357-32 32-32 32 14.357 32 32c0 17.642-14.358 32-32 32zm-213.334-85.334c-29.397 0-53.333 23.936-53.333 53.333s23.936 53.333 53.333 53.333 53.333-23.936 53.333-53.333-23.935-53.333-53.333-53.333zm0 85.334c-17.643 0-32-14.357-32-32s14.357-32 32-32 32 14.357 32 32c0 17.642-14.357 32-32 32zm277.334-128H191.125c-25.323 0-47.317-18.027-52.288-42.88L85.12 29.912a10.666 10.666 0 00-10.453-8.576h-64C4.779 21.336 0 26.114 0 32.002s4.779 10.667 10.667 10.667H65.92l51.989 259.989c6.955 34.773 37.76 60.011 73.216 60.011h267.541c5.888 0 10.667-4.779 10.667-10.667s-4.778-10.666-10.666-10.666z"/><path d="M509.397 89.005a10.709 10.709 0 00-8.064-3.669H96c-5.888 0-10.667 4.779-10.667 10.667S90.112 106.669 96 106.669h393.024l-17.237 120.939a10.683 10.683 0 01-9.28 9.088L126.741 277.4c-5.867.725-10.027 6.037-9.323 11.883a10.663 10.663 0 0010.581 9.387c.427 0 .853-.021 1.28-.064l335.765-40.725c14.336-1.749 25.771-12.949 27.819-27.243l19.029-133.141a10.603 10.603 0 00-2.495-8.492z"/></svg>