<svg width="148.93" height="55.29" viewBox="142.675 27.228 148.93 55.29" preserveAspectRatio="xMidYMid" version="1.1" id="svg32" xmlns="http://www.w3.org/2000/svg"><defs id="defs22"><linearGradient id="editing-gradow-gradient" x1=".655" x2="82.291" y1="-15.96" y2="-15.96" gradientUnits="userSpaceOnUse" gradientTransform="scale(1.7263 .57927)"><stop offset="0" stop-color="#bce1aa" id="stop2"/><stop offset="1" stop-color="#6e8763" id="stop4"/></linearGradient><filter id="editing-gradow-filter" x="-.028" y="-.085" width="1.057" height="1.169"><feFlood flood-color="#475f40" result="flood" id="feFlood7"/><feComposite operator="in" in2="SourceAlpha" in="flood" result="shadow" id="feComposite9"/><feOffset dx="-4" dy="-4" in="SourceGraphic" result="offset-1" id="feOffset11"/><feOffset dx="4" dy="4" in="shadow" result="offset-2" id="feOffset13"/><feMerge id="feMerge19"><feMergeNode in="offset-2" id="feMergeNode15"/><feMergeNode in="offset-1" id="feMergeNode17"/></feMerge></filter></defs><g filter="url(#editing-gradow-filter)" id="g28" transform="translate(-33.391 -35.003)"><g transform="translate(178.936 99.122)" id="g26"><path d="M2.43-17.5l-.22-8.51q0-2.03-.46-3.19-.45-1.18-.45-1.26 0-.99 3.04-1.53t4.64-.54q1.59 0 1.73.76 2.83 12.64 4.77 17.55.23.54.47.54.25 0 .43-.4 3.01-8.51 5.31-16.83.18-.54.9-.84.72-.29 2.5-.56 1.77-.27 3.53-.27 1.76 0 1.76.72 0 .05-.14.7-.13.65-.27 1.6-.14.94-.32 2.29-.4 3.11-.51 7.13-.12 4.03-.12 8.08l.09 4.73q0 3.24.43 4.61t.43 1.57q0 .21-.32.48Q28.26.45 25.43.45q-1.8 0-2.03-1.22-.13-.63-.13-2t.27-8.44q.26-7.06.26-10.28 0-3.21-.35-3.21-.05 0-.05.02t-.13.07q-.14.04-.7 1.39-.57 1.35-2.23 6.66-1.66 5.31-3.02 9.92-1.35 4.62-1.48 4.97-.5 1.22-1.89 1.22-.67 0-1.08-.49-1.44-6.66-5.13-19.04l-1.26-4.09q-.09-.23-.18-.23-.22 0-.32.32-.18 2.92-.18 11.49t.63 10.82q.05.1.05.27Q6.48-.45 5-.02 3.51.4 2.32.4 1.13.4 1.13-.14q0-.04.22-.71.67-2.3.88-6.66.2-4.37.2-9.99zm45.23 4l-.1 5.76q0 5.99 1.31 7.2.18.18.18.4 0 .68-2.9.68-2.91 0-3.09-1.71-.04-.4-.04-1.66l.18-7.21q0-.31-.36-.31-2.16 0-4.05 1.22-1.89 1.21-1.89 3.1 0 .99.54 1.66.54.68 1.33.68.78 0 1.3-.31.52-.32.61-.37.77.1.77 1.6 0 1.51-1.4 2.43-1.39.92-2.92.92-1.54 0-2.64-.54-1.1-.53-1.6-1.21-.49-.67-.8-1.53-.32-1.03-.32-1.8 0-3.15 1.98-5.04 1.98-1.89 5.09-2.7 4.09-.81 4.27-1.48.13-.5.13-1.67 0-2.38-2.43-2.38-1.03 0-1.84.65t-.81 1.64l.27 1.08q-.09.77-1.62.9l-.5.04q-1.35 0-2.13-.67-.79-.67-.79-1.8 0-.72.47-1.6.48-.87 1.19-1.42.72-.53 2.23-.96 1.51-.43 2.91-.43 1.39 0 2.15.09.77.09 2.1.43 1.33.34 2.2 1.28.88.95.95 2 .07 1.06.07 3.04zm5.71-4.66q.99-1.01 2.61-1.71 1.62-.69 3.1-.69 1.49 0 3.02.67.18 0 .27-.09 1.17-1.17 3.42-1.17.54 0 .54.5 0 .04-.09.4-.09.36-.22 1.06-.14.69-.23 1.69-.32 2.56-.34 5.67-.02 3.1-.02 6.2l.13 9.45q0 4.55-2.34 7.56-.94 1.22-2.85 2.12-1.92.9-4.48.9-.59-.36-.59-.72t.5-.59q2.83-1.3 4.05-6.18 1.21-4.89 1.21-14.83l-.09-6.3-.13-3.06q0-.4-1.26-.58-1.62 0-2.72 1.05-1.11 1.06-1.51 2.77-.72 2.75-.72 4.75t.65 3.53q.65 1.53 2.27 1.53.45 0 .84-.18.38-.18.52-.18.44 0 .44.9t-.13 1.46q-.14.56-.54 1.24-.9 1.48-3.51 1.48T51.43-1.4q-1.16-1.93-1.35-3.46-.27-2.29-.27-3.02 0-.71.03-1.14.02-.43.22-1.71.21-1.28.54-2.43.34-1.15 1.06-2.57.72-1.41 1.71-2.43zm19.62-5.91l-1.08-.05q-1.22 0-1.58.58-.09.14-.22.14-.59 0-.59-2t.61-2.55q.61-.53 2.12-.53 1.5 0 2.05.51.53.52.53 1.74 0 1.21-.4 1.68-.41.48-1.44.48zm-3.6 22.72l.49-10.48q0-3.74-.85-5.09-.27-.45-.63-.67-.27-.09-.27-.36 0-.82 2.29-1.58 2.3-.76 3.36-.76 1.05 0 1.1.54 0 .89-.25 5.1t-.25 8.85q0 4.63.54 5.76.14.22.14.44 0 .59-1.71.59t-3.51-.9q-.45-.23-.45-1.44zm23.13-3.82q0 2.56-2.05 4.25T85.59.77q-4.14 0-6.07-2.5-1.94-2.5-1.94-6.77 0-4.55 2.03-8.06.98-1.8 2.83-2.83 1.84-1.04 4.32-1.04 3.74 0 5.27 2.52.63 1.03.63 2.43 0 2.16-1.81 3.24-.72.41-1.32.41-.61 0-.99-.07t-1.01-.61q-.64-.54-.64-1.48.05-.5.77-.81.67-.41.67-1.45 0-1.75-2.16-1.75-.54 0-1.28.47-.74.48-1.23 1.22-.5.74-.93 2.34-.43 1.59-.43 3.06 0 1.46.12 2.2.11.75.49 2.03.39 1.28 1.44 2.09 1.06.81 2.63.81 1.9 0 3.33-1.57.59-.63.95-1.53.18-.37.45-.37.4 0 .61.75.2.74.2 1.33zm5.89-26.87l6.48.36q4.32 0 6.21-1.03.28-.18.48-.18.2 0 .2.62 0 .64-.77 2.07-1.12 2.21-3.24 2.21l-2.47-.05q-.36 0-.45.41-.32 6.61-.32 14.29 0 7.67.63 11.54v.23q0 1.12-2.13 1.79Q100.89.9 99 .9q-.9 0-.9-.5 0-.13.13-.62.5-.99.88-9.59.38-8.59.38-12.96l-.09-4.91q0-.27-.27-.31-.94-.18-2.16-.18-2.43 0-3.6.99-.31.23-.6.23-.3 0-.3-.36 0-.55.57-1.49.56-.94 1.19-1.62 1.53-1.62 4.18-1.62zm15.57 20.61l.05 1.13q0 .26.36.26 1.44-.13 2.52-.74 1.08-.6 1.62-1.37 1.08-1.66 1.17-2.88l.04-.54q0-2.43-1.93-2.43-1.44 0-2.34 1.26-1.49 1.98-1.49 5.31zm9.81 5.99q0 1.71-.69 2.99-.7 1.28-1.58 1.89-.88.6-2.05.96-1.48.45-2.83.45-3.78 0-5.58-2.83-1.8-2.83-1.8-7.22t2.23-7.81q2.22-3.42 6.68-3.42 4.05 0 5.49 2.84.58 1.07.58 2.04t-.09 1.53q-.09.56-.63 1.69-.54 1.12-1.44 2.03-.9.9-2.83 1.71-1.94.8-4.55 1.08-.36 0-.36.31 0 .41.3 1.19.29.79.65 1.33.99 1.26 2.92 1.26 1.94 0 3.29-1.26.72-.67 1.17-1.66.18-.37.47-.37t.47.5q.18.5.18.77zm16.88-8.06l-.09 5.76q0 5.99 1.3 7.2.18.18.18.4 0 .68-2.9.68t-3.08-1.71q-.05-.4-.05-1.66l.19-7.21q0-.31-.37-.31-2.16 0-4.05 1.22-1.89 1.21-1.89 3.1 0 .99.54 1.66.55.68 1.33.68.79 0 1.31-.31.51-.32.6-.37.77.1.77 1.6 0 1.51-1.4 2.43-1.39.92-2.92.92t-2.63-.54q-1.11-.53-1.6-1.21-.5-.67-.81-1.53-.32-1.03-.32-1.8 0-3.15 1.98-5.04 1.99-1.89 5.09-2.7 4.09-.81 4.28-1.48.13-.5.13-1.67 0-2.38-2.43-2.38-1.04 0-1.85.65t-.81 1.64l.27 1.08q-.09.77-1.62.9l-.49.04q-1.35 0-2.14-.67t-.79-1.8q0-.72.48-1.6.47-.87 1.19-1.42.72-.53 2.23-.96 1.5-.43 2.9-.43 1.39 0 2.16.09.77.09 2.09.43 1.33.34 2.21 1.28.87.95.94 2 .07 1.06.07 3.04z" fill="url(#editing-gradow-gradient)" id="path24"/></g></g><style id="style30"/></svg>