<svg viewBox="0 0 385.739 150.575" width="49.819" height="35.209"><path d="M12.8-36.959h360.909c6.64 0 12.03-5.39 12.03-12.03s-5.39-12.03-12.03-12.03H12.799c-6.64 0-12.03 5.39-12.03 12.03s5.39 12.03 12.03 12.03zm331.988 94.316H104.182c-6.641 0-12.03 5.39-12.03 12.03s5.39 12.03 12.03 12.03h240.606c6.64 0 12.03-5.39 12.03-12.03 0-6.641-5.39-12.03-12.03-12.03zm28.151 130.177H12.03c-6.641 0-12.03 5.39-12.03 12.03s5.39 12.03 12.03 12.03h360.909c6.641 0 12.03-5.39 12.03-12.03s-5.389-12.03-12.03-12.03z"/></svg>