<?xml version="1.0" encoding="UTF-8" standalone="no"?><svg viewBox="0 0 148.93 60" xmlns="http://www.w3.org/2000/svg" xmlns:xlink="http://www.w3.org/1999/xlink"><style>:root>svg{display:none}:root>svg:target{display:block}</style><svg width="148.93" height="55.29" viewBox="142.675 27.228 148.93 55.29" preserveAspectRatio="xMidYMid" version="1.1" id="MagicTea" xmlns="http://www.w3.org/2000/svg"><defs id="defs22"><linearGradient id="editing-gradow-gradient" x1=".655" x2="82.291" y1="-15.96" y2="-15.96" gradientUnits="userSpaceOnUse" gradientTransform="scale(1.7263 .57927)"><stop offset="0" stop-color="#bce1aa" id="stop2"/><stop offset="1" stop-color="#6e8763" id="stop4"/></linearGradient><filter id="editing-gradow-filter" x="-.028" y="-.085" width="1.057" height="1.169"><feFlood flood-color="#475f40" result="flood" id="feFlood7"/><feComposite operator="in" in2="SourceAlpha" in="flood" result="shadow" id="feComposite9"/><feOffset dx="-4" dy="-4" in="SourceGraphic" result="offset-1" id="feOffset11"/><feOffset dx="4" dy="4" in="shadow" result="offset-2" id="feOffset13"/><feMerge id="feMerge19"><feMergeNode in="offset-2" id="feMergeNode15"/><feMergeNode in="offset-1" id="feMergeNode17"/></feMerge></filter></defs><g filter="url(#editing-gradow-filter)" id="g28" transform="translate(-33.391 -35.003)"><g transform="translate(178.936 99.122)" id="g26"><path d="M2.43-17.5l-.22-8.51q0-2.03-.46-3.19-.45-1.18-.45-1.26 0-.99 3.04-1.53t4.64-.54q1.59 0 1.73.76 2.83 12.64 4.77 17.55.23.54.47.54.25 0 .43-.4 3.01-8.51 5.31-16.83.18-.54.9-.84.72-.29 2.5-.56 1.77-.27 3.53-.27 1.76 0 1.76.72 0 .05-.14.7-.13.65-.27 1.6-.14.94-.32 2.29-.4 3.11-.51 7.13-.12 4.03-.12 8.08l.09 4.73q0 3.24.43 4.61t.43 1.57q0 .21-.32.48Q28.26.45 25.43.45q-1.8 0-2.03-1.22-.13-.63-.13-2t.27-8.44q.26-7.06.26-10.28 0-3.21-.35-3.21-.05 0-.05.02t-.13.07q-.14.04-.7 1.39-.57 1.35-2.23 6.66-1.66 5.31-3.02 9.92-1.35 4.62-1.48 4.97-.5 1.22-1.89 1.22-.67 0-1.08-.49-1.44-6.66-5.13-19.04l-1.26-4.09q-.09-.23-.18-.23-.22 0-.32.32-.18 2.92-.18 11.49t.63 10.82q.05.1.05.27Q6.48-.45 5-.02 3.51.4 2.32.4 1.13.4 1.13-.14q0-.04.22-.71.67-2.3.88-6.66.2-4.37.2-9.99zm45.23 4l-.1 5.76q0 5.99 1.31 7.2.18.18.18.4 0 .68-2.9.68-2.91 0-3.09-1.71-.04-.4-.04-1.66l.18-7.21q0-.31-.36-.31-2.16 0-4.05 1.22-1.89 1.21-1.89 3.1 0 .99.54 1.66.54.68 1.33.68.78 0 1.3-.31.52-.32.61-.37.77.1.77 1.6 0 1.51-1.4 2.43-1.39.92-2.92.92-1.54 0-2.64-.54-1.1-.53-1.6-1.21-.49-.67-.8-1.53-.32-1.03-.32-1.8 0-3.15 1.98-5.04 1.98-1.89 5.09-2.7 4.09-.81 4.27-1.48.13-.5.13-1.67 0-2.38-2.43-2.38-1.03 0-1.84.65t-.81 1.64l.27 1.08q-.09.77-1.62.9l-.5.04q-1.35 0-2.13-.67-.79-.67-.79-1.8 0-.72.47-1.6.48-.87 1.19-1.42.72-.53 2.23-.96 1.51-.43 2.91-.43 1.39 0 2.15.09.77.09 2.1.43 1.33.34 2.2 1.28.88.95.95 2 .07 1.06.07 3.04zm5.71-4.66q.99-1.01 2.61-1.71 1.62-.69 3.1-.69 1.49 0 3.02.67.18 0 .27-.09 1.17-1.17 3.42-1.17.54 0 .54.5 0 .04-.09.4-.09.36-.22 1.06-.14.69-.23 1.69-.32 2.56-.34 5.67-.02 3.1-.02 6.2l.13 9.45q0 4.55-2.34 7.56-.94 1.22-2.85 2.12-1.92.9-4.48.9-.59-.36-.59-.72t.5-.59q2.83-1.3 4.05-6.18 1.21-4.89 1.21-14.83l-.09-6.3-.13-3.06q0-.4-1.26-.58-1.62 0-2.72 1.05-1.11 1.06-1.51 2.77-.72 2.75-.72 4.75t.65 3.53q.65 1.53 2.27 1.53.45 0 .84-.18.38-.18.52-.18.44 0 .44.9t-.13 1.46q-.14.56-.54 1.24-.9 1.48-3.51 1.48T51.43-1.4q-1.16-1.93-1.35-3.46-.27-2.29-.27-3.02 0-.71.03-1.14.02-.43.22-1.71.21-1.28.54-2.43.34-1.15 1.06-2.57.72-1.41 1.71-2.43zm19.62-5.91l-1.08-.05q-1.22 0-1.58.58-.09.14-.22.14-.59 0-.59-2t.61-2.55q.61-.53 2.12-.53 1.5 0 2.05.51.53.52.53 1.74 0 1.21-.4 1.68-.41.48-1.44.48zm-3.6 22.72l.49-10.48q0-3.74-.85-5.09-.27-.45-.63-.67-.27-.09-.27-.36 0-.82 2.29-1.58 2.3-.76 3.36-.76 1.05 0 1.1.54 0 .89-.25 5.1t-.25 8.85q0 4.63.54 5.76.14.22.14.44 0 .59-1.71.59t-3.51-.9q-.45-.23-.45-1.44zm23.13-3.82q0 2.56-2.05 4.25T85.59.77q-4.14 0-6.07-2.5-1.94-2.5-1.94-6.77 0-4.55 2.03-8.06.98-1.8 2.83-2.83 1.84-1.04 4.32-1.04 3.74 0 5.27 2.52.63 1.03.63 2.43 0 2.16-1.81 3.24-.72.41-1.32.41-.61 0-.99-.07t-1.01-.61q-.64-.54-.64-1.48.05-.5.77-.81.67-.41.67-1.45 0-1.75-2.16-1.75-.54 0-1.28.47-.74.48-1.23 1.22-.5.74-.93 2.34-.43 1.59-.43 3.06 0 1.46.12 2.2.11.75.49 2.03.39 1.28 1.44 2.09 1.06.81 2.63.81 1.9 0 3.33-1.57.59-.63.95-1.53.18-.37.45-.37.4 0 .61.75.2.74.2 1.33zm5.89-26.87l6.48.36q4.32 0 6.21-1.03.28-.18.48-.18.2 0 .2.62 0 .64-.77 2.07-1.12 2.21-3.24 2.21l-2.47-.05q-.36 0-.45.41-.32 6.61-.32 14.29 0 7.67.63 11.54v.23q0 1.12-2.13 1.79Q100.89.9 99 .9q-.9 0-.9-.5 0-.13.13-.62.5-.99.88-9.59.38-8.59.38-12.96l-.09-4.91q0-.27-.27-.31-.94-.18-2.16-.18-2.43 0-3.6.99-.31.23-.6.23-.3 0-.3-.36 0-.55.57-1.49.56-.94 1.19-1.62 1.53-1.62 4.18-1.62zm15.57 20.61l.05 1.13q0 .26.36.26 1.44-.13 2.52-.74 1.08-.6 1.62-1.37 1.08-1.66 1.17-2.88l.04-.54q0-2.43-1.93-2.43-1.44 0-2.34 1.26-1.49 1.98-1.49 5.31zm9.81 5.99q0 1.71-.69 2.99-.7 1.28-1.58 1.89-.88.6-2.05.96-1.48.45-2.83.45-3.78 0-5.58-2.83-1.8-2.83-1.8-7.22t2.23-7.81q2.22-3.42 6.68-3.42 4.05 0 5.49 2.84.58 1.07.58 2.04t-.09 1.53q-.09.56-.63 1.69-.54 1.12-1.44 2.03-.9.9-2.83 1.71-1.94.8-4.55 1.08-.36 0-.36.31 0 .41.3 1.19.29.79.65 1.33.99 1.26 2.92 1.26 1.94 0 3.29-1.26.72-.67 1.17-1.66.18-.37.47-.37t.47.5q.18.5.18.77zm16.88-8.06l-.09 5.76q0 5.99 1.3 7.2.18.18.18.4 0 .68-2.9.68t-3.08-1.71q-.05-.4-.05-1.66l.19-7.21q0-.31-.37-.31-2.16 0-4.05 1.22-1.89 1.21-1.89 3.1 0 .99.54 1.66.55.68 1.33.68.79 0 1.31-.31.51-.32.6-.37.77.1.77 1.6 0 1.51-1.4 2.43-1.39.92-2.92.92t-2.63-.54q-1.11-.53-1.6-1.21-.5-.67-.81-1.53-.32-1.03-.32-1.8 0-3.15 1.98-5.04 1.99-1.89 5.09-2.7 4.09-.81 4.28-1.48.13-.5.13-1.67 0-2.38-2.43-2.38-1.04 0-1.85.65t-.81 1.64l.27 1.08q-.09.77-1.62.9l-.49.04q-1.35 0-2.14-.67t-.79-1.8q0-.72.48-1.6.47-.87 1.19-1.42.72-.53 2.23-.96 1.5-.43 2.9-.43 1.39 0 2.16.09.77.09 2.09.43 1.33.34 2.21 1.28.87.95.94 2 .07 1.06.07 3.04z" fill="url(#editing-gradow-gradient)" id="path24"/></g></g><style id="style30"/></svg><svg width="50" height="50" viewBox="0 0 512 512" id="arrow1"><path d="M394.8 222.851L186.065 14.116c-18.821-18.821-51.328-18.821-68.438 0-18.82 18.821-18.82 49.617 0 68.438L290.433 257.07 117.628 429.875c-18.82 18.821-18.82 49.618 0 68.438C126.183 506.868 139.87 512 151.846 512c11.976 0 25.665-5.132 34.219-13.688L394.8 291.288c8.555-8.555 13.688-22.242 13.688-34.219 0-11.976-5.133-25.663-13.688-34.218zm-23.953 44.484L163.823 474.36c-5.133 5.132-15.398 5.132-20.531 0-5.133-5.132-5.133-15.399 0-20.531l184.782-184.782c6.844-6.844 6.844-17.109 0-23.953L141.581 60.312c-5.133-6.844-5.133-15.399 0-20.531 3.422-3.422 6.844-5.132 10.266-5.132 3.422 0 6.844 1.71 10.266 5.132l208.735 208.735c3.422 3.422 5.132 6.844 5.132 10.266-1.711 1.709-3.422 6.843-5.133 8.553z" data-original="#000000"/></svg><svg width="15" height="15" viewBox="0 0 512.002 512.002" id="arrow2" xmlns="http://www.w3.org/2000/svg"><path d="M388.425 241.951L151.609 5.79c-7.759-7.733-20.321-7.72-28.067.04-7.74 7.759-7.72 20.328.04 28.067l222.72 222.105-222.728 222.104c-7.759 7.74-7.779 20.301-.04 28.061a19.8 19.8 0 0014.057 5.835 19.79 19.79 0 0014.017-5.795l236.817-236.155c3.737-3.718 5.834-8.778 5.834-14.05s-2.103-10.326-5.834-14.051z" data-original="#000000"/></svg><svg height="36" viewBox="0 0 24 24" width="36" id="arrow3" xmlns="http://www.w3.org/2000/svg"><path d="M0 0h24v24H0V0z" fill="none"/><path d="M4 12l1.41 1.41L11 7.83V20h2V7.83l5.58 5.59L20 12l-8-8-8 8z"/></svg><svg height="36" viewBox="0 0 20 20" width="36" id="arrow4" xmlns="http://www.w3.org/2000/svg"><path fill="none" d="M0 0h20v20H0z"/><path d="M4.59 16.59L6 18l8-8-8-8-1.41 1.41L11.17 10z"/></svg><svg width="60" height="60" viewBox="0 0 512.005 512.005" id="cart"><path d="M394.667 384.002c-29.397 0-53.333 23.936-53.333 53.333s23.936 53.333 53.333 53.333S448 466.733 448 437.336s-23.936-53.334-53.333-53.334zm0 85.334c-17.643 0-32-14.357-32-32s14.357-32 32-32 32 14.357 32 32c0 17.642-14.358 32-32 32zM181.333 384.002c-29.397 0-53.333 23.936-53.333 53.333s23.936 53.333 53.333 53.333 53.333-23.936 53.333-53.333-23.935-53.333-53.333-53.333zm0 85.334c-17.643 0-32-14.357-32-32s14.357-32 32-32 32 14.357 32 32c0 17.642-14.357 32-32 32zM458.667 341.336H191.125c-25.323 0-47.317-18.027-52.288-42.88L85.12 29.912a10.666 10.666 0 00-10.453-8.576h-64C4.779 21.336 0 26.114 0 32.002s4.779 10.667 10.667 10.667H65.92l51.989 259.989c6.955 34.773 37.76 60.011 73.216 60.011h267.541c5.888 0 10.667-4.779 10.667-10.667s-4.778-10.666-10.666-10.666z"/><path d="M509.397 89.005a10.709 10.709 0 00-8.064-3.669H96c-5.888 0-10.667 4.779-10.667 10.667S90.112 106.669 96 106.669h393.024l-17.237 120.939a10.683 10.683 0 01-9.28 9.088L126.741 277.4c-5.867.725-10.027 6.037-9.323 11.883a10.663 10.663 0 0010.581 9.387c.427 0 .853-.021 1.28-.064l335.765-40.725c14.336-1.749 25.771-12.949 27.819-27.243l19.029-133.141a10.603 10.603 0 00-2.495-8.492z"/></svg><svg height="18" viewBox="0 0 24 24" width="18" id="check" xmlns="http://www.w3.org/2000/svg"><path d="M0 0h24v24H0V0z" fill="none"/><path d="M9 16.2L4.8 12l-1.4 1.4L9 19 21 7l-1.4-1.4L9 16.2z"/></svg><svg height="15" viewBox="0 0 24 24" width="15" id="close" xmlns="http://www.w3.org/2000/svg"><path d="M0 0h24v24H0V0z" fill="none"/><path d="M19 6.41L17.59 5 12 10.59 6.41 5 5 6.41 10.59 12 5 17.59 6.41 19 12 13.41 17.59 19 19 17.59 13.41 12 19 6.41z"/></svg><svg height="40" viewBox="0 0 24 24" width="40" id="closeBurger" xmlns="http://www.w3.org/2000/svg"><path d="M0 0h24v24H0V0z" fill="none"/><path d="M19 6.41L17.59 5 12 10.59 6.41 5 5 6.41 10.59 12 5 17.59 6.41 19 12 13.41 17.59 19 19 17.59 13.41 12 19 6.41z"/></svg><svg height="30" viewBox="0 0 512 512" width="30" id="delete"><path d="M256 512C114.84 512 0 397.16 0 256S114.84 0 256 0s256 114.84 256 256-114.84 256-256 256zm0-475.43C135.008 36.57 36.57 135.008 36.57 256S135.008 475.43 256 475.43 475.43 376.992 475.43 256 376.992 36.57 256 36.57zm0 0"/><path d="M347.43 365.715c-4.68 0-9.36-1.785-12.93-5.36L151.645 177.5c-7.145-7.145-7.145-18.715 0-25.855 7.14-7.141 18.714-7.145 25.855 0L360.355 334.5c7.145 7.145 7.145 18.715 0 25.855a18.207 18.207 0 01-12.925 5.36zm0 0"/><path d="M164.57 365.715c-4.68 0-9.355-1.785-12.925-5.36-7.145-7.14-7.145-18.714 0-25.855L334.5 151.645c7.145-7.145 18.715-7.145 25.855 0 7.141 7.14 7.145 18.714 0 25.855L177.5 360.355a18.216 18.216 0 01-12.93 5.36zm0 0"/></svg><svg height="30" viewBox="0 0 24 24" width="30" id="instagram"><linearGradient id="a" gradientTransform="matrix(0 -1.982 -1.844 0 -132.522 -51.077)" gradientUnits="userSpaceOnUse" x1="-37.106" x2="-26.555" y1="-72.705" y2="-84.047"><stop offset="0" stop-color="#fd5"/><stop offset=".5" stop-color="#ff543e"/><stop offset="1" stop-color="#c837ab"/></linearGradient><path d="M1.5 1.633C-.386 3.592 0 5.673 0 11.995c0 5.25-.916 10.513 3.878 11.752 1.497.385 14.761.385 16.256-.002 1.996-.515 3.62-2.134 3.842-4.957.031-.394.031-13.185-.001-13.587-.236-3.007-2.087-4.74-4.526-5.091C18.89.029 18.778.005 15.91 0 5.737.005 3.507-.448 1.5 1.633z" fill="url(#a)"/><path d="M11.998 3.139c-3.631 0-7.079-.323-8.396 3.057-.544 1.396-.465 3.209-.465 5.805 0 2.278-.073 4.419.465 5.804 1.314 3.382 4.79 3.058 8.394 3.058 3.477 0 7.062.362 8.395-3.058.545-1.41.465-3.196.465-5.804 0-3.462.191-5.697-1.488-7.375-1.7-1.7-3.999-1.487-7.374-1.487zm-.794 1.597c7.574-.012 8.538-.854 8.006 10.843-.189 4.137-3.339 3.683-7.211 3.683-7.06 0-7.263-.202-7.263-7.265 0-7.145.56-7.257 6.468-7.263zm5.524 1.471a1.063 1.063 0 100 2.126 1.063 1.063 0 000-2.126zm-4.73 1.243a4.55 4.55 0 10.001 9.101 4.55 4.55 0 00-.001-9.101zm0 1.597c3.905 0 3.91 5.908 0 5.908-3.904 0-3.91-5.908 0-5.908z" fill="#fff"/></svg><svg width="35" height="30" viewBox="0 0 362.427 263.971" id="leaf" xmlns="http://www.w3.org/2000/svg"><path d="M310.052 146.142c-24.766.808-43.446-12.629-66.148-18.752-28.578-7.707-60.158-1.162-83.95 16.094a130.239 130.239 0 001.434-13.523C163.905 82.197 142.905 38.898 117.63 0c.834 6.719 1.99 13.477 2.4 20.238.992 16.303-6.142 31.16-17.178 42.77C86.673 79.543 65.324 84.033 46.44 95.723 8.86 118.982-10.14 168.857 5.495 211.078c10.052 26.066 14.886 32.566 14.886 32.566s24.685 8.209 71.602-11.02c14.798-6.065 26.96-15.76 26.96-15.76 6.817 6.873 28.604 28.779 58.33 39.633 41.706 15.23 86.28 6.807 120.247-21.818 36.575-30.822 53.807-75.758 64.907-120.797-14.457 17.366-27.884 31.459-52.375 32.26zM33.003 218.435c27.562-29.73 50.522-59.1 66.182-96.658.628 39.311-30.82 81.25-66.182 96.658zm112.174-16.939c40.545-.227 77.665-3.549 115.784-17.805-28.283 27.367-80.34 33.09-115.784 17.805z" fill="#556f4d" data-original="#000000" id="path2"/></svg><svg viewBox="0 0 385.739 150.575" width="49.819" height="35.209" id="menu"><g id="g9" transform="translate(-1.4 -121.225)"><g id="Menu_1_"><path d="M14.199 84.266h360.909c6.641 0 12.03-5.39 12.03-12.03s-5.39-12.03-12.03-12.03H14.199c-6.641 0-12.03 5.39-12.03 12.03s5.39 12.03 12.03 12.03z" id="path2"/><path d="M346.187 178.582H105.581c-6.64 0-12.03 5.39-12.03 12.03s5.39 12.03 12.03 12.03h240.606c6.641 0 12.03-5.39 12.03-12.03.001-6.641-5.389-12.03-12.03-12.03z" id="path4"/><path d="M374.339 308.759H13.429c-6.64 0-12.03 5.39-12.03 12.03s5.39 12.03 12.03 12.03h360.91c6.64 0 12.03-5.39 12.03-12.03s-5.39-12.03-12.03-12.03z" id="path6"/></g></g></svg><svg height="20" viewBox="0 0 24 24" width="20" id="minus" xmlns="http://www.w3.org/2000/svg"><path d="M0 0h24v24H0V0z" fill="none"/><path d="M19 13H5v-2h14v2z"/></svg><svg height="20" viewBox="0 0 24 24" width="20" id="plus" xmlns="http://www.w3.org/2000/svg"><path d="M0 0h24v24H0V0z" fill="none"/><path d="M19 13h-6v6h-2v-6H5v-2h6V5h2v6h6v2z"/></svg><svg height="20" viewBox="0 0 24 24" width="20" id="search" xmlns="http://www.w3.org/2000/svg"><path d="M0 0h24v24H0V0z" fill="none"/><path d="M15.5 14h-.79l-.28-.27A6.471 6.471 0 0016 9.5 6.5 6.5 0 109.5 16c1.61 0 3.09-.59 4.23-1.57l.27.28v.79l5 4.99L20.49 19l-4.99-5zm-6 0C7.01 14 5 11.99 5 9.5S7.01 5 9.5 5 14 7.01 14 9.5 11.99 14 9.5 14z"/></svg><svg height="30" viewBox="0 0 24 24" width="30" id="star"><path d="M0 0h24v24H0V0z" fill="none"/><path d="M0 0h24v24H0V0z" fill="none"/><g><path d="M12 17.27L18.18 21l-1.64-7.03L22 9.24l-7.19-.61L12 2 9.19 8.63 2 9.24l5.46 4.73L5.82 21 12 17.27z"/></g></svg></svg>